ply
format ascii 1.0
comment VCGLIB generated
element vertex 142
property float x
property float y
property float z
property float nx
property float ny
property float nz
element face 272
property list uchar int vertex_indices
end_header
-0.36919 0.76903 0.00269 -1.78814e-007 5.66997 -8.32975e-005 
-0.26411 0.73918 0.00269 2.95293 4.77792 -7.84248e-005 
-0.33672 0.73918 -0.09724 0.912539 4.77797 -2.80846 
-0.19041 0.65854 0.00269 5.07113 2.53543 -8.32081e-005 
-0.23164 0.67423 -0.09724 3.86567 2.95307 -2.80857 
-0.31394 0.65854 -0.16733 1.56722 2.5357 -4.82298 
-0.4542 0.73918 -0.05907 -2.38903 4.77793 -1.73569 
-0.42173 0.67423 -0.15901 -1.47646 2.95287 -4.54424 
-0.51382 0.65854 -0.10239 -4.10276 2.53556 -2.98081 
-0.4542 0.73918 0.06446 -2.38905 4.77786 1.73571 
-0.53921 0.67423 0.00269 -4.77818 2.95293 -3.3021e-005 
-0.51382 0.65854 0.10777 -4.10298 2.5357 2.98072 
-0.33672 0.73918 0.10263 0.912552 4.77798 2.80839 
-0.42173 0.67423 0.1644 -1.47655 2.95285 4.54418 
-0.31394 0.65854 0.17272 1.56722 2.5357 4.82298 
-0.23164 0.67423 0.10263 3.86567 2.95309 2.80849 
-0.1791 0.56915 0.06446 5.34206 -4.48823e-005 1.73579 
-0.1791 0.56915 -0.05907 5.34212 4.14252e-006 -1.73576 
-0.22456 0.47977 0.10777 4.10308 -2.53585 2.9809 
-0.19916 0.46407 0.00269 4.77775 -2.9528 -3.30508e-005 
-0.22456 0.47977 -0.10239 4.10286 -2.53571 -2.98099 
-0.2517 0.56915 -0.15901 3.30153 2.33203e-005 -4.5439 
-0.36919 0.56915 -0.19718 -8.23922e-005 -4.97401e-005 -5.61695 
-0.31665 0.46407 -0.15901 1.47634 -2.95304 -4.54402 
-0.42443 0.47977 -0.16733 -1.56718 -2.53572 -4.8232 
-0.48667 0.56915 -0.15901 -3.30147 -0.000153929 -4.54416 
-0.55928 0.56915 -0.05907 -5.34198 -8.69036e-005 -1.73565 
-0.50674 0.46407 -0.09724 -3.86544 -2.95303 -2.8084 
-0.54796 0.47977 0.00269 -5.07151 -2.53567 -8.31932e-005 
-0.55928 0.56915 0.06446 -5.34193 -3.78788e-005 1.73567 
-0.48667 0.56915 0.1644 -3.30149 -5.40018e-005 4.54409 
-0.50674 0.46407 0.10263 -3.86544 -2.95304 2.80832 
-0.42443 0.47977 0.17272 -1.56718 -2.53572 4.8232 
-0.36919 0.56915 0.20257 -8.2463e-005 -4.97252e-005 5.61695 
-0.2517 0.56915 0.1644 3.30155 -7.66814e-005 4.54384 
-0.31665 0.46407 0.1644 1.47644 -2.95301 4.54395 
-0.36919 0.36928 0.00269 -3.57628e-007 -5.66997 -8.31783e-005 
-0.40166 0.39913 -0.09724 -0.912544 -4.77807 -2.80844 
-0.28418 0.39913 -0.05907 2.38892 -4.77812 -1.73572 
-0.47427 0.39913 0.00269 -2.95297 -4.77795 -7.83503e-005 
-0.40166 0.39913 0.10263 -0.912557 -4.77808 2.80837 
-0.28418 0.39913 0.06446 2.38894 -4.77805 1.73574 
-0.33007 0.55803 -0.34053 6.24351 0.202253 -0.39371 
-0.32907 0.5256 -0.3177 4.46391 -2.38512 -0.121352 
-0.33613 0.48846 -0.3609 1.33415 -2.2627 -0.339658 
-0.33433 0.52709 -0.38988 4.19131 -2.51436 -1.0876 
-0.33528 0.56461 -0.39345 6.26577 -0.101371 -0.197606 
-0.33779 0.51201 -0.45218 0.916646 -0.984325 -1.14064 
-0.33234 0.62358 -0.33698 6.2794 -0.154563 -0.000445579 
-0.33235 0.62221 -0.40933 2.89369 1.40314 -2.6727 
-0.33233 0.68121 -0.33697 2.71415 3.04585 -0.380422 
-0.33233 0.66838 -0.37348 2.57823 2.45242 -1.75374 
-0.32981 0.55736 -0.27273 6.28061 -0.0635046 0.0295849 
-0.33234 0.48966 -0.2722 1.60369 -2.32792 0.26207 
-0.33083 0.59079 -0.3068 6.26176 0.36688 -0.230786 
-0.33234 0.62306 -0.29204 6.28105 0.0947213 -0.026781 
-0.33233 0.67513 -0.26923 2.70557 2.92348 0.927114 
-0.3306 0.55481 -0.22137 6.27821 -0.175207 0.159268 
-0.3306 0.53779 -0.24476 -0.904708 -1.5605 0.680848 
-0.32926 0.58595 -0.23384 6.23919 0.346751 0.14397 
-0.33237 0.6121 -0.25089 6.26608 0.318407 0.0143896 
-0.33233 0.64582 -0.21858 3.05597 2.64497 1.6858 
-0.33237 0.54545 -0.16067 2.4388 0.756167 2.96296 
-0.33239 0.50623 -0.16152 1.17032 -1.47578 1.05164 
-0.33236 0.56727 -0.17353 3.43131 1.01294 3.07066 
-0.33235 0.58851 -0.17613 3.45363 -0.175868 3.18551 
-0.33233 0.61184 -0.16997 1.92273 0.88525 2.41695 
-0.36302 0.49031 -0.35904 -1.66182 -1.99956 -0.123415 
-0.35607 0.52615 -0.31684 -4.56056 -2.43976 0.188869 
-0.35702 0.5572 -0.33885 -6.24434 -0.191845 0.388299 
-0.36129 0.52748 -0.38819 -4.36963 -2.45882 -0.65241 
-0.36228 0.565 -0.39257 -6.26707 0.0902759 0.205266 
-0.36479 0.51241 -0.45138 -1.01041 -0.931478 -1.05503 
-0.35935 0.62423 -0.33697 -6.27962 0.149528 0.00283061 
-0.35935 0.62313 -0.40934 -2.78728 1.64082 -2.74223 
-0.35935 0.68121 -0.33697 -2.71414 3.04646 -0.380297 
-0.35935 0.66838 -0.37348 -2.57887 2.45757 -1.75186 
-0.35935 0.48998 -0.27213 -1.66642 -2.17998 0.160462 
-0.35683 0.55764 -0.27285 -6.28069 0.0646838 -0.0278432 
-0.35779 0.58925 -0.30585 -6.26334 -0.356673 0.220184 
-0.35935 0.62266 -0.29192 -6.28106 -0.0940082 0.0286057 
-0.35935 0.67512 -0.26923 -2.70775 2.92421 0.927436 
-0.35472 0.52997 -0.23542 -2.63943 -3.95671 2.04915 
-0.35761 0.55422 -0.2218 -6.27061 -0.137933 -0.09841 
-0.35624 0.58451 -0.23444 -6.24013 -0.332292 -0.138867 
-0.35935 0.61071 -0.25096 -6.26612 -0.322952 -0.0146941 
-0.35935 0.64582 -0.21858 -3.05596 2.64712 1.68651 
-0.35935 0.50628 -0.16324 -1.30624 -1.51988 0.942974 
-0.35935 0.54496 -0.16202 -2.75852 0.694199 2.82892 
-0.35935 0.56708 -0.17464 -3.68525 0.923109 2.7574 
-0.35935 0.58803 -0.17691 -3.62422 -0.314486 2.95468 
-0.35935 0.61184 -0.16997 -1.91641 0.865754 2.41304 
-0.37486 0.55761 0.35406 -6.24383 0.197832 0.391295 
-0.37584 0.52587 0.33164 -4.46069 -2.38525 0.125835 
-0.36883 0.48938 0.37433 -1.34374 -2.28024 0.331669 
-0.37059 0.52728 0.4034 -4.18622 -2.52268 1.08618 
-0.36962 0.5648 0.40737 -6.26633 -0.0969116 0.200597 
-0.36711 0.51221 0.46615 -0.920573 -0.990476 1.14399 
-0.37256 0.6239 0.35134 -6.2795 -0.151932 0.00179869 
-0.37255 0.62267 0.4237 -2.88987 1.40847 2.66888 
-0.37256 0.68121 0.35134 -2.71415 3.04636 0.380439 
-0.37256 0.66838 0.38785 -2.57878 2.45578 1.75217 
-0.37508 0.5575 0.28716 -6.28066 -0.0635775 -0.0287807 
-0.37256 0.48982 0.28653 -1.6079 -2.38056 -0.209505 
-0.37409 0.59002 0.32069 -6.26263 0.361283 0.225152 
-0.37256 0.62286 0.30634 -6.28107 0.0941055 0.027448 
-0.37256 0.67513 0.2836 -2.70449 2.9238 -0.927193 
-0.3743 0.55451 0.23595 -6.27831 0.0123382 -0.133446 
-0.37574 0.53388 0.25446 0.00206896 -0.430624 0.938689 
-0.37565 0.58523 0.2485 -6.23971 0.339866 -0.14126 
-0.37254 0.61141 0.26529 -6.26611 0.320359 -0.0147682 
-0.37256 0.64582 0.23295 -3.05606 2.64616 -1.68612 
-0.37254 0.5452 0.17571 -2.43699 0.760216 -2.99835 
-0.37253 0.50625 0.17675 -1.19024 -1.50968 -1.10024 
-0.37255 0.56717 0.18845 -3.42847 0.994157 -3.07726 
-0.37255 0.58827 0.19088 -3.44995 -0.200989 -3.18258 
-0.37256 0.61184 0.18433 -1.90972 0.866372 -2.41242 
-0.35538 0.49031 0.3734 1.67152 -2.00585 0.117687 
-0.36234 0.52615 0.3312 4.55883 -2.44225 -0.185889 
-0.36138 0.5572 0.35322 6.24432 -0.192289 -0.388641 
-0.35711 0.52748 0.40255 4.3694 -2.4587 0.654233 
-0.35612 0.565 0.40693 6.26707 0.0901929 -0.20535 
-0.35361 0.51241 0.46575 1.01435 -0.935824 1.05667 
-0.35905 0.62423 0.35134 6.27962 0.14953 -0.00282966 
-0.35905 0.62313 0.42371 2.78176 1.64424 2.73928 
-0.35905 0.68121 0.35134 2.71415 3.04646 0.380323 
-0.35905 0.66838 0.38785 2.57887 2.45757 1.75186 
-0.35905 0.48998 0.28649 1.6613 -2.17666 -0.15713 
-0.36157 0.55764 0.28722 6.2807 0.0647862 0.0273633 
-0.36061 0.58925 0.32021 6.26334 -0.356707 -0.220337 
-0.35905 0.62266 0.30628 6.28106 -0.0940083 -0.0286054 
-0.35905 0.67512 0.2836 2.70883 2.92433 -0.927552 
-0.36368 0.52997 0.24979 2.54231 -4.02181 -1.94571 
-0.3608 0.55422 0.23616 6.27071 -0.136962 0.0987796 
-0.36217 0.58451 0.2488 6.23985 -0.33338 0.138914 
-0.35905 0.61071 0.26532 6.26603 -0.32381 0.0145916 
-0.35905 0.64582 0.23295 3.05606 2.6472 -1.68638 
-0.35905 0.50628 0.1776 1.32785 -1.5279 -0.965628 
-0.35905 0.54496 0.17638 2.75303 0.69076 -2.82865 
-0.35905 0.56708 0.189 3.67905 0.921053 -2.75863 
-0.35905 0.58803 0.19128 3.62287 -0.317514 -2.95418 
-0.35905 0.61184 0.18433 1.9086 0.860656 -2.4115 
3 0 1 2 
3 1 3 4 
3 1 4 2 
3 2 4 5 
3 0 2 6 
3 2 5 7 
3 2 7 6 
3 6 7 8 
3 0 6 9 
3 6 8 10 
3 6 10 9 
3 9 10 11 
3 0 9 12 
3 9 11 13 
3 9 13 12 
3 12 13 14 
3 0 12 1 
3 12 14 15 
3 12 15 1 
3 1 15 3 
3 3 16 17 
3 16 18 19 
3 16 19 17 
3 17 19 20 
3 5 21 22 
3 21 20 23 
3 21 23 22 
3 22 23 24 
3 8 25 26 
3 25 24 27 
3 25 27 26 
3 26 27 28 
3 11 29 30 
3 29 28 31 
3 29 31 30 
3 30 31 32 
3 14 33 34 
3 33 32 35 
3 33 35 34 
3 34 35 18 
3 20 21 17 
3 21 5 4 
3 21 4 17 
3 17 4 3 
3 24 25 22 
3 25 8 7 
3 25 7 22 
3 22 7 5 
3 28 29 26 
3 29 11 10 
3 29 10 26 
3 26 10 8 
3 32 33 30 
3 33 14 13 
3 33 13 30 
3 30 13 11 
3 18 16 34 
3 16 3 15 
3 16 15 34 
3 34 15 14 
3 36 37 38 
3 37 24 23 
3 37 23 38 
3 38 23 20 
3 36 39 37 
3 39 28 27 
3 39 27 37 
3 37 27 24 
3 36 40 39 
3 40 32 31 
3 40 31 39 
3 39 31 28 
3 36 41 40 
3 41 18 35 
3 41 35 40 
3 40 35 32 
3 36 38 41 
3 38 20 19 
3 38 19 41 
3 41 19 18 
3 42 43 44 
3 44 45 42 
3 46 42 45 
3 45 47 46 
3 48 46 47 
3 47 49 48 
3 50 48 49 
3 49 51 50 
3 52 53 43 
3 43 42 52 
3 54 52 42 
3 42 46 54 
3 55 54 46 
3 46 48 55 
3 56 55 48 
3 48 50 56 
3 57 58 53 
3 53 52 57 
3 59 57 52 
3 52 54 59 
3 60 59 54 
3 54 55 60 
3 61 60 55 
3 55 56 61 
3 62 63 58 
3 58 57 62 
3 64 62 57 
3 57 59 64 
3 65 64 59 
3 59 60 65 
3 66 65 60 
3 60 61 66 
3 67 68 69 
3 69 70 67 
3 70 69 71 
3 71 72 70 
3 72 71 73 
3 73 74 72 
3 74 73 75 
3 75 76 74 
3 68 77 78 
3 78 69 68 
3 69 78 79 
3 79 71 69 
3 71 79 80 
3 80 73 71 
3 73 80 81 
3 81 75 73 
3 77 82 83 
3 83 78 77 
3 78 83 84 
3 84 79 78 
3 79 84 85 
3 85 80 79 
3 80 85 86 
3 86 81 80 
3 82 87 88 
3 88 83 82 
3 83 88 89 
3 89 84 83 
3 84 89 90 
3 90 85 84 
3 85 90 91 
3 91 86 85 
3 67 70 45 
3 45 44 67 
3 68 67 44 
3 44 43 68 
3 70 72 47 
3 47 45 70 
3 72 74 49 
3 49 47 72 
3 74 76 51 
3 51 49 74 
3 76 75 50 
3 50 51 76 
3 77 68 43 
3 43 53 77 
3 75 81 56 
3 56 50 75 
3 82 77 53 
3 53 58 82 
3 81 86 61 
3 61 56 81 
3 88 87 63 
3 63 62 88 
3 87 82 58 
3 58 63 87 
3 89 88 62 
3 62 64 89 
3 90 89 64 
3 64 65 90 
3 86 91 66 
3 66 61 86 
3 91 90 65 
3 65 66 91 
3 92 93 94 
3 94 95 92 
3 96 92 95 
3 95 97 96 
3 98 96 97 
3 97 99 98 
3 100 98 99 
3 99 101 100 
3 102 103 93 
3 93 92 102 
3 104 102 92 
3 92 96 104 
3 105 104 96 
3 96 98 105 
3 106 105 98 
3 98 100 106 
3 107 108 103 
3 103 102 107 
3 109 107 102 
3 102 104 109 
3 110 109 104 
3 104 105 110 
3 111 110 105 
3 105 106 111 
3 112 113 108 
3 108 107 112 
3 114 112 107 
3 107 109 114 
3 115 114 109 
3 109 110 115 
3 116 115 110 
3 110 111 116 
3 117 118 119 
3 119 120 117 
3 120 119 121 
3 121 122 120 
3 122 121 123 
3 123 124 122 
3 124 123 125 
3 125 126 124 
3 118 127 128 
3 128 119 118 
3 119 128 129 
3 129 121 119 
3 121 129 130 
3 130 123 121 
3 123 130 131 
3 131 125 123 
3 127 132 133 
3 133 128 127 
3 128 133 134 
3 134 129 128 
3 129 134 135 
3 135 130 129 
3 130 135 136 
3 136 131 130 
3 132 137 138 
3 138 133 132 
3 133 138 139 
3 139 134 133 
3 134 139 140 
3 140 135 134 
3 135 140 141 
3 141 136 135 
3 117 120 95 
3 95 94 117 
3 118 117 94 
3 94 93 118 
3 120 122 97 
3 97 95 120 
3 122 124 99 
3 99 97 122 
3 124 126 101 
3 101 99 124 
3 126 125 100 
3 100 101 126 
3 127 118 93 
3 93 103 127 
3 125 131 106 
3 106 100 125 
3 132 127 103 
3 103 108 132 
3 131 136 111 
3 111 106 131 
3 138 137 113 
3 113 112 138 
3 137 132 108 
3 108 113 137 
3 139 138 112 
3 112 114 139 
3 140 139 114 
3 114 115 140 
3 136 141 116 
3 116 111 136 
3 141 140 115 
3 115 116 141 
