ply
format ascii 1.0
comment VCGLIB generated
element vertex 80
property float x
property float y
property float z
property float nx
property float ny
property float nz
element face 124
property list uchar int vertex_indices
end_header
-3.17953 0.0307 3.53264 -1.58009 -1.60523 1.58308 
-3.17953 0.0307 -3.01571 -1.58007 -1.6052 -1.58308 
3.19297 0.0307 -3.01571 1.58007 -1.60519 -1.58308 
3.19297 0.0307 3.53264 1.58009 -1.60523 1.58308 
3.1981 0.44582 3.53655 1.56126 1.53681 1.55837 
-3.18466 0.44582 3.53655 -1.56126 1.53682 1.55837 
3.1981 0.44582 -3.01961 1.56128 1.53686 -1.55837 
-3.18466 0.44582 -3.01961 -1.56128 1.53686 -1.55837 
3.17012 0.03706 -2.99833 -1.5708 1.5708 1.5708 
-3.15668 0.03706 -2.99833 1.5708 1.5708 1.5708 
-3.15668 0.03706 3.51526 1.5708 1.5708 -1.5708 
3.17012 0.03706 3.51526 -1.5708 1.5708 -1.5708 
3.17012 0.44582 3.51526 -1.5708 4.71239 -1.5708 
-3.15668 0.44582 3.51526 1.5708 4.71239 -1.5708 
3.17012 0.44582 -2.99833 -1.5708 4.71238 1.5708 
-3.15668 0.44582 -2.99833 1.5708 4.71239 1.5708 
-3.15563 0.0268 0.38352 -1.5708 -1.5708 1.5708 
-3.15563 0.0268 0.03022 -1.5708 -1.5708 -1.5708 
-2.08995 0.0268 0.03022 1.5708 -1.5708 -1.5708 
-2.08995 0.0268 0.38352 1.5708 -1.5708 1.5708 
-3.15563 0.43592 0.38352 -1.5708 1.5708 1.5708 
-2.08995 0.43592 0.38352 1.5708 1.5708 1.5708 
-2.08995 0.43592 0.03022 1.5708 1.5708 -1.5708 
-3.15563 0.43592 0.03022 -1.5708 1.5708 -1.5708 
-2.64719 0.0268 -1.27092 -1.5708 -1.5708 1.5708 
-2.64719 0.0268 -1.62084 -1.5708 -1.5708 -1.5708 
3.17373 0.0268 -1.62084 1.5708 -1.5708 -1.5708 
3.17373 0.0268 -1.27092 1.5708 -1.5708 1.5708 
-2.64719 0.42928 -1.27092 -1.5708 1.5708 1.5708 
3.17373 0.42928 -1.27092 1.5708 1.5708 1.5708 
3.17373 0.42928 -1.62084 1.5708 1.5708 -1.5708 
-2.64719 0.42928 -1.62084 -1.5708 1.5708 -1.5708 
-1.14528 0.0268 0.42407 -1.5708 -1.5708 1.5708 
-1.14528 0.0268 0.07076 -1.5708 -1.5708 -1.5708 
1.98302 0.0268 0.07076 1.5708 -1.5708 -1.5708 
1.98302 0.0268 0.42407 1.5708 -1.5708 1.5708 
-1.14528 0.49051 0.42407 -1.5708 1.5708 1.5708 
1.98302 0.49051 0.42407 1.5708 1.5708 1.5708 
1.98302 0.49051 0.07076 1.5708 1.5708 -1.5708 
-1.14528 0.49051 0.07076 -1.5708 1.5708 -1.5708 
-0.62314 0.0268 1.91535 -1.5708 -1.5708 1.5708 
-0.62314 0.0268 1.56543 -1.5708 -1.5708 -1.5708 
3.18687 0.0268 1.56543 1.5708 -1.5708 -1.5708 
3.18687 0.0268 1.91535 1.5708 -1.5708 1.5708 
-0.62314 0.43748 1.91535 -1.5708 1.5708 1.5708 
3.18687 0.43748 1.91535 1.5708 1.5708 1.5708 
3.18687 0.43748 1.56543 1.5708 1.5708 -1.5708 
-0.62314 0.43748 1.56543 -1.5708 1.5708 -1.5708 
2.38366 0.05102 3.21935 -1.5708 -1.5708 1.5708 
2.38366 0.05102 2.74654 -1.5708 -1.5708 -1.5708 
2.76086 0.05102 2.74654 1.5708 -1.5708 -1.5708 
2.76086 0.05102 3.21935 1.5708 -1.5708 1.5708 
2.38366 0.34671 3.21935 -1.5708 1.5708 1.5708 
2.76086 0.34671 3.21935 1.5708 1.5708 1.5708 
2.76086 0.34671 2.74654 1.5708 1.5708 -1.5708 
2.38366 0.34671 2.74654 -1.5708 1.5708 -1.5708 
1.25583 0.0268 -2.18131 -1.5708 -1.5708 -1.5708 
1.45201 0.0268 -2.18131 1.5708 -1.5708 -1.5708 
1.45201 0.0268 -1.62379 1.5708 -1.5708 1.5708 
1.25583 0.0268 -1.62379 -1.5708 -1.5708 1.5708 
1.25583 0.4141 -2.18131 -1.5708 1.5708 -1.5708 
1.25583 0.4141 -1.62379 -1.5708 1.5708 1.5708 
1.45201 0.4141 -1.62379 1.5708 1.5708 1.5708 
1.45201 0.4141 -2.18131 1.5708 1.5708 -1.5708 
-0.58549 0.0268 -3.01136 -1.5708 -1.5708 -1.5708 
-0.38931 0.0268 -3.01136 1.5708 -1.5708 -1.5708 
-0.38931 0.0268 -2.45384 1.5708 -1.5708 1.5708 
-0.58549 0.0268 -2.45384 -1.5708 -1.5708 1.5708 
-0.58549 0.4636 -3.01136 -1.5708 1.5708 -1.5708 
-0.58549 0.4636 -2.45384 -1.5708 1.5708 1.5708 
-0.38931 0.4636 -2.45384 1.5708 1.5708 1.5708 
-0.38931 0.4636 -3.01136 1.5708 1.5708 -1.5708 
2.56442 0.03555 -2.23324 -1.5708 -1.5708 1.5708 
2.56442 0.03555 -2.70604 -1.5708 -1.5708 -1.5708 
2.94162 0.03555 -2.70604 1.5708 -1.5708 -1.5708 
2.94162 0.03555 -2.23324 1.5708 -1.5708 1.5708 
2.56442 0.33123 -2.23324 -1.5708 1.5708 1.5708 
2.94162 0.33123 -2.23324 1.5708 1.5708 1.5708 
2.94162 0.33123 -2.70604 1.5708 1.5708 -1.5708 
2.56442 0.33123 -2.70604 -1.5708 1.5708 -1.5708 
3 0 1 2 
3 2 3 0 
3 0 3 4 
3 4 5 0 
3 3 2 6 
3 6 4 3 
3 2 1 7 
3 7 6 2 
3 1 0 5 
3 5 7 1 
3 8 9 10 
3 10 11 8 
3 12 11 10 
3 10 13 12 
3 14 8 11 
3 11 12 14 
3 15 9 8 
3 8 14 15 
3 13 10 9 
3 9 15 13 
3 5 4 12 
3 12 13 5 
3 4 6 14 
3 14 12 4 
3 6 7 15 
3 15 14 6 
3 7 5 13 
3 13 15 7 
3 16 17 18 
3 18 19 16 
3 20 21 22 
3 22 23 20 
3 16 19 21 
3 21 20 16 
3 19 18 22 
3 22 21 19 
3 18 17 23 
3 23 22 18 
3 17 16 20 
3 20 23 17 
3 24 25 26 
3 26 27 24 
3 28 29 30 
3 30 31 28 
3 24 27 29 
3 29 28 24 
3 27 26 30 
3 30 29 27 
3 26 25 31 
3 31 30 26 
3 25 24 28 
3 28 31 25 
3 32 33 34 
3 34 35 32 
3 36 37 38 
3 38 39 36 
3 32 35 37 
3 37 36 32 
3 35 34 38 
3 38 37 35 
3 34 33 39 
3 39 38 34 
3 33 32 36 
3 36 39 33 
3 40 41 42 
3 42 43 40 
3 44 45 46 
3 46 47 44 
3 40 43 45 
3 45 44 40 
3 43 42 46 
3 46 45 43 
3 42 41 47 
3 47 46 42 
3 41 40 44 
3 44 47 41 
3 48 49 50 
3 50 51 48 
3 52 53 54 
3 54 55 52 
3 48 51 53 
3 53 52 48 
3 51 50 54 
3 54 53 51 
3 50 49 55 
3 55 54 50 
3 49 48 52 
3 52 55 49 
3 56 57 58 
3 58 59 56 
3 60 61 62 
3 62 63 60 
3 56 59 61 
3 61 60 56 
3 59 58 62 
3 62 61 59 
3 58 57 63 
3 63 62 58 
3 57 56 60 
3 60 63 57 
3 64 65 66 
3 66 67 64 
3 68 69 70 
3 70 71 68 
3 64 67 69 
3 69 68 64 
3 67 66 70 
3 70 69 67 
3 66 65 71 
3 71 70 66 
3 65 64 68 
3 68 71 65 
3 72 73 74 
3 74 75 72 
3 76 77 78 
3 78 79 76 
3 72 75 77 
3 77 76 72 
3 75 74 78 
3 78 77 75 
3 74 73 79 
3 79 78 74 
3 73 72 76 
3 76 79 73 
