ply
format ascii 1.0
comment VCGLIB generated
element vertex 48
property float x
property float y
property float z
property float nx
property float ny
property float nz
element face 72
property list uchar int vertex_indices
end_header
-1e-005 0.01638 -0.00444 1.56774 1.69565 -1.43542 
-0.00262 0.01635 -0.00447 -1.57355 1.66043 -1.4744 
-0.00265 0.01615 -0.00164 -1.60346 1.4382 1.65879 
-4e-005 0.01617 -0.00161 1.54317 1.47217 1.70438 
-0.00256 0.00868 -0.00217 -1.56853 -1.69599 1.43806 
-0.00253 0.00888 -0.005 -1.53419 -1.47301 -1.6949 
8e-005 0.00891 -0.00497 1.6062 -1.43783 -1.65965 
5e-005 0.00871 -0.00214 1.57364 -1.66057 1.47439 
3e-005 0.00888 -0.0015 1.35231 1.76095 -1.56976 
-0.00255 0.00854 -0.0015 -1.76277 1.35372 -1.57183 
-0.00255 0.00854 0.00134 -1.76277 1.35372 1.57183 
3e-005 0.00888 0.00134 1.35231 1.76095 1.56976 
-0.00158 0.00112 0.00134 -1.35231 -1.76095 1.56976 
-0.00158 0.00112 -0.0015 -1.35231 -1.76095 -1.56976 
0.001 0.00146 -0.0015 1.76277 -1.35372 -1.57183 
0.001 0.00146 0.00134 1.76277 -1.35372 1.57183 
3e-005 0.00847 0.00135 1.81312 1.28187 -1.56994 
-0.00254 0.00891 0.00135 -1.28297 1.81467 -1.57165 
-0.00254 0.00891 0.00419 -1.28297 1.81467 1.57165 
3e-005 0.00847 0.00419 1.81312 1.28187 1.56994 
-0.00381 0.00153 0.00419 -1.81312 -1.28187 1.56994 
-0.00381 0.00153 0.00135 -1.81311 -1.28187 -1.56994 
-0.00124 0.00109 0.00135 1.28297 -1.81467 -1.57165 
-0.00124 0.00109 0.00419 1.28297 -1.81467 1.57165 
0.00198 0.01 0.00812 1.91404 -0.669866 1.80821 
-0.00048 0.00914 0.00814 -1.05175 -1.71406 1.84672 
-0.00034 0.00865 0.00535 -0.888808 -2.24539 -1.24766 
0.00212 0.00952 0.00532 2.07858 -1.20418 -1.28835 
-0.00279 0.0156 0.00402 -1.91732 0.669583 -1.80921 
-0.00293 0.01608 0.00682 -2.07714 1.20321 1.28859 
-0.00047 0.01695 0.00679 0.888462 2.24523 1.25156 
-0.00033 0.01647 0.004 1.04482 1.71419 -1.8359 
5e-005 0.01622 -0.00148 1.5708 1.5708 -1.5708 
-0.00255 0.01622 -0.00148 -1.5708 1.5708 -1.5708 
-0.00255 0.01622 0.00426 -1.5708 1.5708 1.5708 
5e-005 0.01622 0.00426 1.5708 1.5708 1.5708 
-0.00255 0.00873 0.00426 -1.5708 -1.5708 1.5708 
-0.00255 0.00873 -0.00148 -1.5708 -1.5708 -1.5708 
5e-005 0.00873 -0.00148 1.5708 -1.5708 -1.5708 
5e-005 0.00873 0.00426 1.5708 -1.5708 1.5708 
0.00125 0.02122 -0.00113 1.5728 1.58333 -1.56132 
0.00125 0.01622 -0.00117 1.5688 -1.5582 -1.58017 
-0.00375 0.01622 -0.00117 -1.5688 -1.5582 -1.58017 
-0.00375 0.02122 -0.00113 -1.5728 1.58333 -1.56132 
0.00125 0.02119 0.00387 1.5688 1.5582 1.58017 
0.00125 0.01619 0.00383 1.5728 -1.58333 1.56132 
-0.00375 0.02119 0.00387 -1.5688 1.5582 1.58017 
-0.00375 0.01619 0.00383 -1.5728 -1.58333 1.56132 
3 0 1 2 
3 2 3 0 
3 4 5 6 
3 6 7 4 
3 2 1 5 
3 5 4 2 
3 3 2 4 
3 4 7 3 
3 0 3 7 
3 7 6 0 
3 6 5 1 
3 1 0 6 
3 8 9 10 
3 10 11 8 
3 12 13 14 
3 14 15 12 
3 10 9 13 
3 13 12 10 
3 11 10 12 
3 12 15 11 
3 8 11 15 
3 15 14 8 
3 14 13 9 
3 9 8 14 
3 16 17 18 
3 18 19 16 
3 20 21 22 
3 22 23 20 
3 18 17 21 
3 21 20 18 
3 19 18 20 
3 20 23 19 
3 16 19 23 
3 23 22 16 
3 22 21 17 
3 17 16 22 
3 24 25 26 
3 26 27 24 
3 28 29 30 
3 30 31 28 
3 26 25 29 
3 29 28 26 
3 27 26 28 
3 28 31 27 
3 24 27 31 
3 31 30 24 
3 30 29 25 
3 25 24 30 
3 32 33 34 
3 34 35 32 
3 36 37 38 
3 38 39 36 
3 34 33 37 
3 37 36 34 
3 35 34 36 
3 36 39 35 
3 32 35 39 
3 39 38 32 
3 38 37 33 
3 33 32 38 
3 40 41 42 
3 42 43 40 
3 44 45 41 
3 41 40 44 
3 46 44 40 
3 40 43 46 
3 47 46 43 
3 43 42 47 
3 42 41 45 
3 45 47 42 
3 47 45 44 
3 44 46 47 
