ply
format ascii 1.0
comment VCGLIB generated
element vertex 50
property float x
property float y
property float z
property float nx
property float ny
property float nz
element face 96
property list uchar int vertex_indices
end_header
0.27669 -0.52288 0.74944 -1.4427 -0.992026 5.75057 
-0.06679 -0.60445 0.5605 -3.68086 -1.52014 1.18307 
0.21246 -1.06417 0.56212 -2.68215 -2.63339 1.36501 
0.41638 -1.20406 0.5641 -2.06666 -3.26048 2.05583 
0.62035 -0.52186 0.75082 0.0747124 -1.07352 6.16924 
0.62005 -1.32834 0.56459 -0.0650191 -2.91308 1.3814 
0.96468 -0.52355 0.74932 1.3333 -0.93025 5.75499 
0.82839 -1.2053 0.56312 2.32649 -3.18425 1.76317 
1.30741 -0.60636 0.56044 3.64048 -1.62394 1.17412 
1.01538 -1.04981 0.56617 2.05386 -1.96645 2.76736 
0.21327 -0.06342 0.74986 -1.75516 -0.0472558 5.92692 
-0.19188 -0.14573 0.56161 -3.89742 -0.527802 1.38114 
0.62066 -0.06229 0.81493 -0.0136473 -0.00799179 6.1125 
1.02777 -0.063 0.74993 1.74251 -0.201181 5.94324 
1.43401 -0.14514 0.56127 3.91876 -0.497626 1.31717 
0.21293 0.40191 0.7486 -1.3228 1.97187 4.85375 
-0.19102 0.31629 0.56174 -3.22622 1.26089 1.08276 
0.62046 0.40092 0.75024 -0.142902 2.31332 5.544 
1.0267 0.39952 0.74946 1.27354 1.89077 5.14036 
1.43427 0.31439 0.56104 3.30274 1.15476 1.00955 
0.32353 0.63813 0.56349 -0.830772 4.4502 1.28361 
0.03333 0.52331 0.56617 -1.47672 2.46912 2.71592 
0.60217 0.64131 0.548 -0.0536098 4.93758 1.14417 
0.91597 0.6415 0.56233 0.654899 4.53997 1.0928 
1.2211 0.53919 0.56173 2.41726 3.63891 0.931262 
0.22594 -1.04981 0.51617 -1.4392 -1.24374 -3.78588 
-0.04515 -0.59632 0.51617 -1.38377 -0.678544 -4.05908 
0.28776 -0.51578 0.7012 1.44319 0.994192 -5.74334 
0.4233 -1.19161 0.51617 -1.25135 -1.75691 -3.83794 
0.62066 -0.51578 0.7012 -0.0757501 1.07683 -6.1695 
0.62066 -1.31592 0.51617 -0.0036968 -2.32908 -2.72632 
0.95356 -0.51578 0.7012 -1.32859 0.927361 -5.74849 
0.81802 -1.19161 0.51617 1.1089 -1.58028 -3.91314 
1.28646 -0.59632 0.51617 1.43164 -0.540228 -4.06588 
1.01538 -1.04981 0.51617 2.23038 -2.13654 -2.77608 
-0.17123 -0.14282 0.51617 -1.71476 -0.219223 -3.97979 
0.22471 -0.06229 0.7012 1.76253 0.0515846 -5.92436 
0.62066 -0.06229 0.76493 0.0130749 0.00879845 -6.11061 
1.0166 -0.06229 0.7012 -1.75314 0.205682 -5.93966 
1.41255 -0.14282 0.51617 1.64818 -0.264509 -4.00557 
-0.17123 0.31068 0.51617 -1.7505 0.768486 -3.49538 
0.22471 0.39121 0.7012 1.30179 -1.96508 -4.84895 
0.62066 0.39121 0.7012 0.144251 -2.3475 -5.51966 
1.0166 0.39121 0.7012 -1.26774 -1.91629 -5.10374 
1.41255 0.31068 0.51617 1.63082 0.844991 -3.56277 
0.03333 0.52331 0.51617 -1.57366 2.6367 -2.72124 
0.327 0.62237 0.51617 -0.316797 1.28262 -3.27065 
0.60249 0.62237 0.50173 0.006837 0.844306 -3.49704 
0.91432 0.62237 0.51617 0.325373 1.08763 -3.44897 
1.20798 0.52331 0.51617 0.554536 1.06341 -3.41893 
3 0 1 2 
3 2 3 0 
3 4 0 3 
3 3 5 4 
3 6 4 5 
3 5 7 6 
3 8 6 7 
3 7 9 8 
3 10 11 1 
3 1 0 10 
3 12 10 0 
3 0 4 12 
3 13 12 4 
3 4 6 13 
3 14 13 6 
3 6 8 14 
3 15 16 11 
3 11 10 15 
3 17 15 10 
3 10 12 17 
3 18 17 12 
3 12 13 18 
3 19 18 13 
3 13 14 19 
3 20 21 16 
3 16 15 20 
3 22 20 15 
3 15 17 22 
3 23 22 17 
3 17 18 23 
3 24 23 18 
3 18 19 24 
3 25 26 27 
3 27 28 25 
3 28 27 29 
3 29 30 28 
3 30 29 31 
3 31 32 30 
3 32 31 33 
3 33 34 32 
3 26 35 36 
3 36 27 26 
3 27 36 37 
3 37 29 27 
3 29 37 38 
3 38 31 29 
3 31 38 39 
3 39 33 31 
3 35 40 41 
3 41 36 35 
3 36 41 42 
3 42 37 36 
3 37 42 43 
3 43 38 37 
3 38 43 44 
3 44 39 38 
3 40 45 46 
3 46 41 40 
3 41 46 47 
3 47 42 41 
3 42 47 48 
3 48 43 42 
3 43 48 49 
3 49 44 43 
3 25 28 3 
3 3 2 25 
3 26 25 2 
3 2 1 26 
3 28 30 5 
3 5 3 28 
3 30 32 7 
3 7 5 30 
3 32 34 9 
3 9 7 32 
3 34 33 8 
3 8 9 34 
3 35 26 1 
3 1 11 35 
3 33 39 14 
3 14 8 33 
3 40 35 11 
3 11 16 40 
3 39 44 19 
3 19 14 39 
3 46 45 21 
3 21 20 46 
3 45 40 16 
3 16 21 45 
3 47 46 20 
3 20 22 47 
3 48 47 22 
3 22 23 48 
3 44 49 24 
3 24 19 44 
3 49 48 23 
3 23 24 49 
