ply
format ascii 1.0
comment VCGLIB generated
element vertex 50
property float x
property float y
property float z
property float nx
property float ny
property float nz
element face 96
property list uchar int vertex_indices
end_header
-1.02511 0.13636 -4.17822 -0.791679 0.628719 -6.01144 
-1.09659 0.13478 -4.15581 -3.85318 -0.205362 -1.95614 
-1.09604 0.18439 -4.15586 -2.33618 1.52779 -1.24529 
-1.02443 0.21444 -4.15588 -0.907442 3.59324 -1.92384 
-0.95399 0.13656 -4.17832 -0.0197132 0.812134 -6.17638 
-0.95403 0.22307 -4.15596 -0.0214255 3.6963 -2.01427 
-0.88254 0.13652 -4.17817 0.97012 0.748719 -5.94039 
-0.88315 0.21428 -4.15589 1.09487 3.46543 -1.90716 
-0.81215 0.13579 -4.15601 3.72056 0.0371138 -2.22873 
-0.81509 0.1828 -4.15639 2.13279 1.52508 -2.01983 
-1.01507 0.05862 -4.17829 -0.916467 -0.0780468 -6.14712 
-1.08753 0.05832 -4.15579 -3.85567 -0.648089 -1.97249 
-0.95395 0.05876 -4.17843 0.0027596 0.000174505 -6.28315 
-0.89273 0.05845 -4.17827 0.961551 -0.134457 -6.13067 
-0.8205 0.0581 -4.15583 3.83135 -0.668388 -2.01608 
-1.01185 -0.0191 -4.17809 -1.14605 -0.7978 -5.90882 
-1.06953 -0.0195 -4.15539 -3.53807 -1.46547 -1.46945 
-0.95388 -0.0186 -4.17837 0.0331271 -0.59733 -6.2245 
-0.89607 -0.01888 -4.17812 1.12181 -0.692336 -5.92397 
-0.83849 -0.01889 -4.15553 3.56317 -1.3794 -1.57878 
-0.98866 -0.12275 -4.15586 -2.29253 -3.00502 -1.9375 
-1.01906 -0.09353 -4.15639 -2.03043 -1.85888 -2.83138 
-0.95382 -0.14253 -4.15614 0.0711778 -2.89817 -1.54155 
-0.91998 -0.12239 -4.15605 2.04784 -3.08569 -2.21825 
-0.88577 -0.09659 -4.15562 2.73303 -2.54804 -1.5936 
-1.09281 0.1828 -4.14372 -1.88901 1.30372 2.73913 
-1.09281 0.13491 -4.14372 -2.11145 -0.107959 3.82478 
-1.02338 0.13491 -4.16576 0.79325 -0.625852 6.00528 
-1.02338 0.21105 -4.14372 -0.601115 2.18869 3.66635 
-0.95395 0.13491 -4.16576 0.0227842 -0.812273 6.1762 
-0.95395 0.2198 -4.14372 0.016994 2.32545 3.62311 
-0.88452 0.13491 -4.16576 -0.966153 -0.744689 5.93735 
-0.88452 0.21105 -4.14372 0.543748 2.27624 3.616 
-0.81509 0.13491 -4.14372 2.37686 -0.354658 3.665 
-0.81509 0.1828 -4.14372 2.1604 1.53708 2.01832 
-1.08389 0.05876 -4.14372 -2.04594 -0.423689 3.7911 
-1.01331 0.05876 -4.16576 0.915959 0.0779942 6.14556 
-0.95395 0.05876 -4.16576 0 0 6.28319 
-0.89459 0.05876 -4.16576 -0.960881 0.138288 6.12912 
-0.82401 0.05876 -4.14372 2.09075 -0.361924 3.78874 
-1.06509 -0.01739 -4.14372 -1.75851 -0.685795 3.87488 
-1.00952 -0.01739 -4.16576 1.14096 0.795869 5.90246 
-0.95395 -0.01739 -4.16576 -0.0330032 0.598043 6.22535 
-0.89838 -0.01739 -4.16576 -1.11914 0.693257 5.91738 
-0.84281 -0.01739 -4.14372 1.78299 -0.846523 3.81759 
-1.01906 -0.09353 -4.14372 -2.28969 -2.10014 2.84905 
-0.9865 -0.11987 -4.14372 -1.34368 -1.73797 3.7137 
-0.95395 -0.14004 -4.14372 0.0177746 -2.42664 2.60869 
-0.92139 -0.11987 -4.14372 1.43206 -1.92503 3.63949 
-0.88884 -0.09353 -4.14372 1.5732 -1.33992 3.70527 
3 0 1 2 
3 2 3 0 
3 4 0 3 
3 3 5 4 
3 6 4 5 
3 5 7 6 
3 8 6 7 
3 7 9 8 
3 10 11 1 
3 1 0 10 
3 12 10 0 
3 0 4 12 
3 13 12 4 
3 4 6 13 
3 14 13 6 
3 6 8 14 
3 15 16 11 
3 11 10 15 
3 17 15 10 
3 10 12 17 
3 18 17 12 
3 12 13 18 
3 19 18 13 
3 13 14 19 
3 20 21 16 
3 16 15 20 
3 22 20 15 
3 15 17 22 
3 23 22 17 
3 17 18 23 
3 24 23 18 
3 18 19 24 
3 25 26 27 
3 27 28 25 
3 28 27 29 
3 29 30 28 
3 30 29 31 
3 31 32 30 
3 32 31 33 
3 33 34 32 
3 26 35 36 
3 36 27 26 
3 27 36 37 
3 37 29 27 
3 29 37 38 
3 38 31 29 
3 31 38 39 
3 39 33 31 
3 35 40 41 
3 41 36 35 
3 36 41 42 
3 42 37 36 
3 37 42 43 
3 43 38 37 
3 38 43 44 
3 44 39 38 
3 40 45 46 
3 46 41 40 
3 41 46 47 
3 47 42 41 
3 42 47 48 
3 48 43 42 
3 43 48 49 
3 49 44 43 
3 25 28 3 
3 3 2 25 
3 26 25 2 
3 2 1 26 
3 28 30 5 
3 5 3 28 
3 30 32 7 
3 7 5 30 
3 32 34 9 
3 9 7 32 
3 34 33 8 
3 8 9 34 
3 35 26 1 
3 1 11 35 
3 33 39 14 
3 14 8 33 
3 40 35 11 
3 11 16 40 
3 39 44 19 
3 19 14 39 
3 46 45 21 
3 21 20 46 
3 45 40 16 
3 16 21 45 
3 47 46 20 
3 20 22 47 
3 48 47 22 
3 22 23 48 
3 44 49 24 
3 24 19 44 
3 49 48 23 
3 23 24 49 
